<svg width="32" height="32" viewBox="0 0 32 32" fill="none" xmlns="http://www.w3.org/2000/svg">
<path d="M9.83297 10.525C12.883 10.525 14.408 12.125 14.408 15.325V22.125C14.408 22.425 14.3163 22.6667 14.133 22.85C13.9663 23.0333 13.733 23.125 13.433 23.125C13.133 23.125 12.8913 23.0333 12.708 22.85C12.5246 22.6667 12.433 22.425 12.433 22.125V20.925C12.1163 21.6417 11.633 22.2 10.983 22.6C10.333 22.9833 9.58297 23.175 8.73297 23.175C7.94964 23.175 7.22464 23.0167 6.55797 22.7C5.90797 22.3833 5.3913 21.9417 5.00797 21.375C4.62464 20.8083 4.43297 20.1833 4.43297 19.5C4.43297 18.5833 4.6663 17.875 5.13297 17.375C5.59964 16.8583 6.3663 16.4917 7.43297 16.275C8.49964 16.0417 9.98297 15.925 11.883 15.925H12.433V15.1C12.433 14.1 12.2246 13.3667 11.808 12.9C11.408 12.4333 10.7496 12.2 9.83297 12.2C8.69964 12.2 7.54964 12.5083 6.38297 13.125C5.93297 13.4083 5.6163 13.55 5.43297 13.55C5.23297 13.55 5.0663 13.475 4.93297 13.325C4.79964 13.175 4.73297 12.9833 4.73297 12.75C4.73297 12.5167 4.79964 12.3167 4.93297 12.15C5.08297 11.9667 5.3163 11.7833 5.63297 11.6C6.2163 11.2667 6.87464 11.0083 7.60797 10.825C8.35797 10.625 9.09964 10.525 9.83297 10.525ZM9.00797 21.575C10.008 21.575 10.8246 21.2417 11.458 20.575C12.108 19.8917 12.433 19.0167 12.433 17.95V17.225H11.983C10.5163 17.225 9.39964 17.2917 8.63297 17.425C7.8663 17.5417 7.3163 17.75 6.98297 18.05C6.6663 18.3333 6.50797 18.7583 6.50797 19.325C6.50797 19.975 6.7413 20.5167 7.20797 20.95C7.6913 21.3667 8.2913 21.575 9.00797 21.575Z" fill="#232323"/>
<path d="M16.7908 22.9091C16.5148 22.9091 16.2928 22.8311 16.1248 22.6751C15.9688 22.5191 15.8908 22.3091 15.8908 22.0451V11.0651C15.8908 10.7891 15.9748 10.5671 16.1428 10.3991C16.3108 10.2191 16.5328 10.1291 16.8088 10.1291C17.0968 10.1291 17.3248 10.2131 17.4928 10.3811C17.6608 10.5491 17.7448 10.7771 17.7448 11.0651V21.3611H23.2168C23.4928 21.3611 23.7028 21.4271 23.8468 21.5591C24.0028 21.6911 24.0808 21.8831 24.0808 22.1351C24.0808 22.3871 24.0028 22.5791 23.8468 22.7111C23.7028 22.8431 23.4928 22.9091 23.2168 22.9091H16.7908ZM26.6115 22.9991C26.2875 22.9991 26.0115 22.8911 25.7835 22.6751C25.5675 22.4591 25.4595 22.1831 25.4595 21.8471C25.4595 21.5111 25.5675 21.2351 25.7835 21.0191C26.0115 20.7911 26.2875 20.6771 26.6115 20.6771C26.9355 20.6771 27.2055 20.7911 27.4215 21.0191C27.6375 21.2351 27.7455 21.5111 27.7455 21.8471C27.7455 22.1831 27.6375 22.4591 27.4215 22.6751C27.2055 22.8911 26.9355 22.9991 26.6115 22.9991Z" fill="#232323"/>
</svg>
